<svg id="Layer_2" data-name="Layer 2" xmlns="http://www.w3.org/2000/svg" viewBox="0 0 237.02 286.4"><defs><style>.cls-1{fill:#f04c37;}.cls-2{fill:#0c999e;}.cls-3{fill:#0b0706;}</style></defs><polyline class="cls-1" points="107.09 20.55 107.09 240.55 12.11 206.85"/><polygon class="cls-2" points="102.53 281.06 216.08 217.57 216.08 157.83 101.7 157.57 226.81 30.68 105.26 31.75 108.56 240.55 102.53 281.06"/><path class="cls-3" d="M118.94,296.4a10,10,0,0,1-4.81-18.78l102.17-56V178.29L91.17,183.93A10,10,0,0,1,84,166.54L211.19,50.68H88.94a10,10,0,0,1,0-20H237a10,10,0,0,1,6.74,17.39L117.91,162.7l107.94-4.86a10,10,0,0,1,10.45,10v59.74a10,10,0,0,1-5.2,8.77L123.74,295.16A10,10,0,0,1,118.94,296.4Z" transform="translate(-10 -10)"/><path class="cls-3" d="M115,260.55a10.15,10.15,0,0,1-3.34-.57l-95-33.7a10,10,0,1,1,6.69-18.85l81.63,29V20a10,10,0,0,1,20,0V140.55l-11.53,23.58,11.53,8.3v78.12a10,10,0,0,1-10,10Z" transform="translate(-10 -10)"/><path class="cls-2" d="M123.92,40.68" transform="translate(-10 -10)"/><path class="cls-2" d="M123.92,40.68" transform="translate(-10 -10)"/></svg>