<?xml version="1.0" encoding="utf-8"?>
<!-- Generator: Adobe Illustrator 25.1.0, SVG Export Plug-In . SVG Version: 6.00 Build 0)  -->
<svg version="1.1" xmlns="http://www.w3.org/2000/svg" xmlns:xlink="http://www.w3.org/1999/xlink" x="0px" y="0px"
	 viewBox="0 0 510 510" style="enable-background:new 0 0 510 510;" xml:space="preserve">
<style type="text/css">
	.st0{fill:#FFFFFF;}
</style>
<g id="Layer_3">
	<path d="M459,0H51C23,0,0,23,0,51v408c0,28,23,51,51,51h408c28,0,51-23,51-51V51C510,23,487,0,459,0z"/>
</g>
<g id="Capa_1">
</g>
<g id="Layer_2">
	<path class="st0" d="M327.8,509.6c-0.4-0.2-0.7-0.3-1.1-0.4c-2.4-0.9-4.2-2.5-5.3-4.8c-1.1-2.4-1.7-5.4-1.7-9.2v-79.6
		c0-21.5-5.8-37.3-17.3-47.3c12.6-1.3,24-3.3,34.1-6c10.1-2.7,20.5-7,31.3-13s19.8-13.4,27-22.2c7.3-8.8,13.2-20.5,17.7-35
		s6.8-31.2,6.8-50.1c0-26.8-8.8-49.7-26.3-68.6c8.2-20.2,7.3-42.8-2.7-67.9c-6.2-2-15.2-0.7-27,3.7c-11.7,4.5-21.9,9.4-30.6,14.7
		l-12.7,8c-20.7-5.8-42-8.7-64-8.7s-43.3,2.9-64,8.7c-3.6-2.5-8.3-5.5-14.2-9s-15.1-7.8-27.8-12.8c-12.6-5-22.2-6.5-28.6-4.5
		c-9.7,25.1-10.5,47.8-2.3,68c-17.5,18.9-26.3,41.7-26.3,68.6c0,18.9,2.2,35.6,6.8,50c4.6,14.5,10.4,26.1,17.5,35
		c7.1,8.9,16,16.3,26.8,22.3c10.8,6,21.2,10.3,31.3,13c10.1,2.7,21.4,4.7,34.1,6c-8.9,8-14.3,19.4-16.3,34.3c-4.7,2.2-9.7,3.9-15,5
		c-5.3,1.1-11.7,1.7-19,1.7s-14.6-2.4-21.8-7.2c-7.2-4.8-13.4-11.7-18.5-20.8c-4.3-7.1-9.7-12.9-16.2-17.3c-6.6-4.5-12.1-7.1-16.5-8
		l-6.7-1c-4.7,0-7.9,0.5-9.7,1.5c-1.8,1-2.4,2.2-1.7,3.8c0.7,1.6,1.7,3.1,3,4.7c1.3,1.6,2.7,2.9,4.3,4l2.3,1.7
		c4.9,2.3,9.7,6.5,14.5,12.7s8.3,11.9,10.5,17l3.3,7.7c2.9,8.5,7.8,15.3,14.7,20.5s14.3,8.6,22.3,10c7.9,1.4,15.7,2.2,23.1,2.3
		c7.5,0.1,13.6-0.3,18.5-1.2l7.7-1.3c0,8.4,0.1,19.9,0.2,34.3c0.1,14.5,0.2,22,0.2,22.7c0,4.9-1.3,8.6-3.7,11.2
		c-1.3,1.4-2.7,2.5-4,3.2h142.7"/>
</g>
</svg>
