<?xml version="1.0" encoding="utf-8"?>
<!-- Generator: Adobe Illustrator 25.1.0, SVG Export Plug-In . SVG Version: 6.00 Build 0)  -->
<svg version="1.1" id="Capa_1" xmlns="http://www.w3.org/2000/svg" xmlns:xlink="http://www.w3.org/1999/xlink" x="0px" y="0px"
	 viewBox="0 0 510 510" style="enable-background:new 0 0 510 510;" xml:space="preserve">
<style type="text/css">
	.st0{fill:#FFFFFF;}
</style>
<path d="M459,0H51C23,0,0,23,0,51v408c0,28,23,51,51,51h408c28,0,51-23,51-51V51C510,23,487,0,459,0z"/>
<g id="Layer_3">
	<path class="st0" d="M403.2,184.1c0.1,3.2,0.3,6.5,0.3,9.6c0,98.2-74.8,211.7-211.7,211.7l0,0l0,0c-42,0-81.1-12.3-114.1-33.4
		c5.8,0.6,11.8,1,17.7,1c34.8,0,67-11.9,92.4-31.9c-32.5-0.6-60-22.2-69.5-51.7c4.6,0.9,9.2,1.4,13.9,1.4c6.8,0,13.4-0.9,19.6-2.7
		c-34.1-6.8-59.6-36.8-59.6-72.9c0-0.4,0-0.6,0-1c10,5.6,21.5,9,33.7,9.2c-20-13.3-33-36.1-33-61.9c0-13.7,3.7-26.5,10.1-37.3
		c36.7,45.1,91.5,74.6,153.3,77.7c-1.3-5.4-1.9-11.1-1.9-17c0-41,33.3-74.4,74.4-74.4c21.4,0,40.8,9,54.3,23.5
		c17-3.3,32.9-9.5,47.2-18.1c-5.6,17.3-17.3,31.9-32.7,41.1c15.1-1.8,29.4-5.8,42.7-11.8C430.3,160.5,417.7,173.6,403.2,184.1z"/>
</g>
</svg>
